<?xml version="1.0" encoding="utf-8"?>
<!-- Generator: Adobe Illustrator 17.1.0, SVG Export Plug-In . SVG Version: 6.00 Build 0)  -->
<!DOCTYPE svg PUBLIC "-//W3C//DTD SVG 1.1//EN" "http://www.w3.org/Graphics/SVG/1.1/DTD/svg11.dtd">
<svg version="1.1" xmlns="http://www.w3.org/2000/svg" xmlns:xlink="http://www.w3.org/1999/xlink" x="0px" y="0px"
	 viewBox="0 0 800 600" enable-background="new 0 0 800 600" xml:space="preserve">
<g id="svg2300" inkscape:output_extension="org.inkscape.output.svg.inkscape" sodipodi:docname="Circuit_High_Speed_Ring_Fwd.svg" inkscape:version="0.48.0 r9654" sodipodi:version="0.32" xmlns:rdf="http://www.w3.org/1999/02/22-rdf-syntax-ns#" xmlns:inkscape="http://www.inkscape.org/namespaces/inkscape" xmlns:sodipodi="http://sodipodi.sourceforge.net/DTD/sodipodi-0.dtd" xmlns:svg="http://www.w3.org/2000/svg" xmlns:cc="http://creativecommons.org/ns#" xmlns:dc="http://purl.org/dc/elements/1.1/">
	<defs>
		
		
			<inkscape:perspective  inkscape:persp3d-origin="400 : 200 : 1" inkscape:vp_y="0 : 1000 : 0" inkscape:vp_x="0 : 300 : 1" sodipodi:type="inkscape:persp3d" id="perspective106" inkscape:vp_z="800 : 300 : 1">
			</inkscape:perspective>
	</defs>
	
		<sodipodi:namedview  inkscape:current-layer="layer1" inkscape:pageshadow="2" inkscape:pageopacity="0.0" inkscape:zoom="0.26398381" borderopacity="1.0" inkscape:cy="339.18505" inkscape:cx="732.5034" showgrid="false" pagecolor="#ffffff" bordercolor="#666666" id="base" inkscape:window-maximized="0" inkscape:window-y="28" inkscape:window-x="161" inkscape:window-height="744" inkscape:window-width="1272" inkscape:document-units="px">
		</sodipodi:namedview>
	<g id="layer1" inkscape:label="Layer 1" inkscape:groupmode="layer">
		<path id="path60" inkscape:connector-curvature="0" fill="#FF0000" d="M337.5,533l-6,4l-4.3-12.9L337.5,533z"/>
		<path id="path182" inkscape:connector-curvature="0" fill="none" stroke="#444444" stroke-width="4" d="M320.3,536.5
			c-4.3-6.5-3.2-8.1-7.9-8.4c-2.2-0.1-4.9,0-7.9,5.4c-1.6,2.9-3.3,5.2-5.8,7.4c-4.8,4.3-10,7.9-16.3,7.9c-6.6,0-8.7-3.3-16.5-5.8
			c-5.3-1.7-14.7-2.1-17.6-0.7c-2.4,1.1-2,1.3-3.9,1.5c-2.4,0.3-4.7-1.1-6.4-3c-2.7-2.9-3.9-5-6.6-8.5c-1.9-2.5-5.1-4.1-6.8-7.1
			c-1.2-2-0.7-3.1-3.4-5.1c-1.9-1.4-10-1.3-15.4-3.2c-4.2-1.5-3.8-7-6.6-11.3c-2.8-4.2-16.9-12.6-24.9-19.4
			c-9.6-10-10-11.1-13.8-15.4c-3.9-4.3-7.2-7.6-10.3-11.9c-2.1-3-4.1-7.3-3.5-12.4c1.3-11.2,7.7-20.2,7.8-32.9
			c0.1-8.7,0.7-12.8-1.3-27.2c-0.8-5.8-2.8-9.8-5-15.2c-5-12.6-10.7-24.9-17.2-37.1c-2.5-4.6-6.1-8.1-10.2-10.5
			c-4.6-2.7-10.2-5-15.4-7.6c-2.6-1.3-3.8-4.3-3.3-6.8c1-5.1,8.2-5.5,16.8-9.4c10.4-4.8,14.9-7.6,20.8-12.8
			c7.2-6.4,13.7-10.7,20.8-17.6c4.9-4.8,9.2-7.8,13.1-15.6c2.2-4.4,3.7-8,5-13.1c1.8-7.4,0.2-14,1.3-17.9c1.4-4.8,6.8-5.6,7.6-9.2
			c0.7-3.3-3.3-7.2-1.4-12c1.1-3,8.7-6.9,14.2-11.7c4.4-3.8,3.8-4.8,8-9.3c8.1-8.7,8.7-7.5,17.5-17.4c3.7-4.1,6.3-7.9,7.3-13.1
			c1.4-6.8-1.8-12.9-4.1-18.3c-0.8-1.8-2.1-2.8-4.4-3.7c-1.9-0.7-4.9,0.2-7-0.6c-3.5-1.4-5.7-2.5-9-5.1c-4.1-3.2-5.8-6-6-8.5
			c-0.2-3.1,1.6-4.2,3.9-5.2c5.1-2.3,12.4-6.4,17.6-11.7c2.9-3,1.5-6.7,3.1-10.7c0.9-2.3,2.9-6,5.5-8.5c3.8-3.7,9.2-5.6,15.7-2.6
			c6.7,3.1,12.3,6.5,18.8,12.5c1.8,1.6,1.1,6.9,4.8,6.7c4.9-0.2,2.4-3.4,7.6-5.9c8.1-3.9,19.1-4.4,27.3-2.2
			c3.8,0.9,8.3,3.2,12.2,2.6c5.1-0.8,6.9-5,7.3-7c1-4.5-0.1-11.1,2.4-14.3c2.6-3.3,3.8-5.1,20-10.3c15.3-4.9,20.8-2.1,28.7-5.2
			c9-3.5,16.2-14.9,23.3-14.4c3.7,0.2,7.2,2.2,7.9,6.5c1.2,7.8-0.7,15.5-0.7,22.6c-0.1,15.9,4.5,24.9,7.7,28.3
			c6.3,6.8,13,10.9,20.7,14.5c5.8,2.7,10.4,5.3,18.4,5.4c15.2,0.2,26.7,0.1,38.3,2.7c7.5,1.7,15.2,3.6,21.5,7.9
			c4.8,3.3,7.5,6.4,12.2,9.3c8.6,5.3,14.8,7.8,22,6.7c5.6-0.8,13.6-6.1,19.6-11.1c5.1-4.3,9.7-10.8,16.3-12.2
			c9.8-2.1,14.6-0.9,21.1-3.5c5.8-2.4,8.7-2.4,10.3-0.9c4.1,3.8,1.1,8-1.8,10.2c-6.6,5-17.8,14-21,14.8c-7.8,1.9-6.3,8.4-4.6,10.2
			c4,4,10.1,1.1,10.9-1.8c0.6-2.2,2.2-3.5,5.5-5.9c3.8-2.7,7.7-4.8,14.9-7.3c3.1-1.1,5.2-2.2,13.6-3.2c6.1-0.7,12.2-8.6,17.1-15.6
			c6.3-9,0.4-10.6,1.8-15.8c1.2-4.3,2.3-8.8,7.9-12.6c4.8-3.3,30.3,5.2,32.1,6.4c4.5,2.8,6.7,8.1,10.9,10c4.8,2.2,6.8,2.3,10.9,4.1
			c2.8,1.3,11.7,14,11.8,17.5c0.2,5.7-9.6,21.2-3.8,26.3c5.2,4.5,6.7,3.2,12.5,6.1c4,2,4,8.5,4.2,13c0.2,4.4,0.1,10.2-3.4,12.1
			c-7.1,3.8-16.7-2-24.7,0.2c-4.3,1.2-2.8,6.7-8.2,13.5c-6.2,7.8-9.1,16.5-9.1,21.4c0,7.2,0.7,16.4,0.1,22.9c-0.3,3.5-2.3,7.4-5.4,9
			c-5.2,2.6-10.1,2.1-14.4,5.2c-4.6,3.3-7.3,6.9-11.6,11.6c-4.1,4.6-4.9,7.3-7.4,12.9c-2.2,4.8-4.1,6.8-6.7,9.9
			c-2.3,2.7-5.9,4-8.9,6c-2.8,1.9-5.4,5-10.2,6.3c-12.9,3.4-25.1,8.9-37.4,9.8c-8.1,0.6-10.9-9.6-18.9-9.5c-3.4,0.1-6.6,1.9-9.4,3.9
			c-4.9,3.5-9.8,5.8-9.5,9.9c1.2,13.1,25.6,12.3,32.1,22.4c2.1,3.3,5.2,8.1,4.7,16.1c-0.3,4.4-3.8,8-7.1,10.6
			c-7.6,6.1-34.2,21.3-51.7,31.8l-86.2,53.5c-15.8,9.9-40.9,24.8-47.7,29.9c-16.3,12.3-30.4,35.5-34.1,40.8
			c-2.3,3.3-10.1,8.8-11,11.3c-1,2.9-0.7,8.5-3.6,10.5c-3.5,2.5-5.3,1.5-8.9,1.6c-3.1,0-2.2,0.8-5.6,1.5c-2.7,0.6-7.8,0.2-12.4-6.2
			L320.3,536.5z"/>
	</g>
</g>
<g id="Ebene_2">
	<g id="Ebene_3">
		<circle fill="#FF7777" cx="176.5" cy="248.5" r="13.5"/>
		<circle opacity="0.8" fill="#FFFFFF" stroke="#000000" stroke-width="2" cx="262.5" cy="84.5" r="13.5"/>
		<circle opacity="0.8" fill="#FFFFFF" stroke="#000000" stroke-width="2" cx="411.8" cy="87.8" r="13.5"/>
		<circle opacity="0.8" fill="#FFFFFF" stroke="#000000" stroke-width="2" cx="654.5" cy="95.8" r="13.5"/>
		<circle cx="158" cy="468.7" r="13.5"/>
		<circle fill="#F0F0F0" cx="465.8" cy="437.2" r="13.5"/>
		<circle opacity="0.8" fill="#FFFFFF" stroke="#000000" stroke-width="2" cx="589.8" cy="356.5" r="13.5"/>
		<circle opacity="0.8" fill="#FFFFFF" stroke="#000000" stroke-width="2" cx="130.8" cy="334.5" r="13.5"/>
		<circle opacity="0.8" fill="#FFFFFF" stroke="#000000" stroke-width="2" cx="612.8" cy="304.5" r="13.5"/>
		<circle opacity="0.8" fill="#FFFFFF" stroke="#000000" stroke-width="2" cx="707.3" cy="187" r="13.5"/>
		<circle fill="#99EE66" cx="392.5" cy="482.5" r="13.5"/>
	</g>
	<g id="Ebene_4">
		<g>
			<path d="M265.9,89.8v1.7h-6.2v-4.6c0-0.9,0.5-1.8,1.5-2.7c0.4-0.4,0.8-0.8,1.2-1.2c1-0.9,1.5-1.8,1.5-2.5c0-0.5-0.1-0.9-0.2-1.1
				c-0.1-0.2-0.3-0.3-0.5-0.4c-0.2-0.1-0.5-0.1-0.9-0.1H261c-0.7,0-1-0.1-1.1-0.2s-0.2-0.6-0.2-1.3l2.7-0.2c1.2,0,2,0.1,2.5,0.4
				c0.3,0.2,0.5,0.3,0.6,0.5c0.1,0.2,0.2,0.4,0.3,0.7c0.1,0.5,0.1,1,0.1,1.6c0,0.6-0.1,1.2-0.4,1.6c-0.3,0.5-0.6,0.9-1.1,1.3
				c-0.4,0.4-0.8,0.8-1.2,1.2c-1,0.9-1.5,1.8-1.5,2.5v2.6l0,0.1H265.9z"/>
		</g>
		<g>
			<path d="M408.4,85.8c0-1.9,0-3,0.1-3.3c0.1-0.3,0.1-0.5,0.2-0.8c0.1-0.3,0.2-0.4,0.3-0.5c0.1-0.1,0.2-0.2,0.4-0.3
				c0.1-0.1,0.3-0.2,0.5-0.3c0.6-0.1,1.1-0.2,1.5-0.2s0.8,0,1.1,0c0.3,0,0.5,0.1,0.8,0.2c0.2,0.1,0.4,0.2,0.5,0.3s0.3,0.3,0.4,0.6
				c0.1,0.3,0.2,0.5,0.2,0.7c0.1,0.2,0.1,0.6,0.1,1.1c0,0.7,0.1,1.6,0.1,2.5s0,1.6,0,2c0,0.4,0,0.8,0,1.4c0,0.6-0.1,1-0.1,1.3
				c0,0.3-0.1,0.7-0.2,1.2s-0.2,0.8-0.3,1c-0.1,0.3-0.3,0.5-0.4,0.8c-0.2,0.3-0.4,0.5-0.6,0.6c-0.6,0.3-1.2,0.5-1.9,0.5l-2.5-0.2
				v-1.5h2.6c0.4,0,0.8-0.3,1-0.8c0.2-0.5,0.4-1.3,0.5-2.5l-1,0.5c-1.5,0-2.4-0.3-2.7-0.9C408.5,88.9,408.4,87.7,408.4,85.8z
				 M411.5,82.1c-0.6,0-1,0.2-1.1,0.6c-0.1,0.4-0.2,1.2-0.2,2.6c0,1.4,0.1,2.3,0.2,2.7c0.1,0.4,0.5,0.6,1,0.6l1.3-0.5l0-1.8
				c0-2-0.1-3.2-0.2-3.6C412.4,82.3,412.1,82.1,411.5,82.1z"/>
		</g>
		<g>
			<path d="M614.6,310.8c-0.6,0.8-1.4,1.2-2.4,1.2s-1.8-0.4-2.4-1.1c-0.6-0.8-0.9-1.9-0.9-3.3s0.5-2.6,1.5-3.5
				c-0.7-0.8-1.1-1.8-1.1-3.1c0-1.3,0.3-2.2,0.9-2.8c0.6-0.6,1.3-0.9,2.1-0.9c0.9,0,1.6,0.3,2.1,0.9c0.6,0.6,0.9,1.5,0.9,2.8
				s-0.3,2.4-1,3.2c0.9,0.9,1.4,2,1.4,3.4C615.5,309,615.2,310.1,614.6,310.8z M611,309.5c0.3,0.5,0.6,0.7,1.1,0.7
				c0.5,0,0.8-0.2,1.1-0.7c0.3-0.5,0.4-1.1,0.4-1.9c0-0.8-0.2-1.5-0.5-1.9c-0.3-0.5-0.7-0.7-1-0.7c-0.4,0-0.7,0.2-1,0.7
				c-0.3,0.5-0.5,1.1-0.5,1.9S610.8,309.1,611,309.5z M612.1,303.2c0.8,0,1.1-0.7,1.1-2.1c0-1.4-0.4-2.1-1.1-2.1
				c-0.7,0-1.1,0.7-1.1,2.1C611,302.5,611.4,303.2,612.1,303.2z"/>
		</g>
		<g>
			<path d="M468.6,438.8v1.1c0,0.8,0,1.4-0.1,1.6s-0.1,0.5-0.1,0.8c-0.1,0.3-0.1,0.4-0.2,0.5c-0.1,0.1-0.2,0.2-0.3,0.4
				c-0.1,0.2-0.3,0.3-0.4,0.3s-0.3,0.1-0.5,0.2c-0.3,0.1-0.7,0.1-1.2,0.1c-0.6,0-1,0-1.3-0.1c-0.3-0.1-0.5-0.2-0.8-0.3
				c-0.2-0.1-0.4-0.3-0.5-0.4c-0.2-0.1-0.3-0.4-0.4-0.7c-0.1-0.3-0.2-0.6-0.2-0.8c-0.1-0.2-0.1-0.6-0.1-1c0-0.7-0.1-1.4-0.1-2.3
				v-1.7c0-1.2,0-1.9,0.1-2.4c0-0.4,0.1-0.8,0.2-1.3c0.1-0.4,0.1-0.8,0.2-1c0.1-0.2,0.2-0.5,0.3-0.8s0.3-0.5,0.4-0.7
				c0.2-0.2,0.3-0.3,0.5-0.5c0.4-0.3,0.9-0.4,1.6-0.4l2.6,0.2c0,0.7-0.1,1.2-0.2,1.3c-0.1,0.1-0.5,0.2-1.1,0.2h-1.3
				c-0.4,0-0.7,0.2-0.9,0.7s-0.3,1.2-0.4,2.4l1-0.3c1.5,0,2.4,0.3,2.7,0.8C468.4,435.4,468.6,436.7,468.6,438.8z M465.5,442.2
				c0.6,0,0.9-0.2,1.1-0.6c0.1-0.4,0.2-1.3,0.2-2.7c0-1.4-0.1-2.3-0.2-2.7c-0.1-0.4-0.5-0.6-1-0.6l-1.3,0.4l0,1.9c0,0.1,0,0.3,0,0.8
				c0,0.5,0,0.9,0,1.2c0,0.4,0.1,0.7,0.1,1.2s0.2,0.7,0.4,0.8S465.2,442.2,465.5,442.2z"/>
		</g>
		<g>
			<path fill="#FFFFFF" d="M173.4,254.1c1.1,0.1,1.9,0.2,2.6,0.2c0.6,0,1-0.2,1.1-0.6c0.1-0.4,0.2-1.3,0.2-2.7s-0.1-2.3-0.2-2.7
				c-0.1-0.4-0.5-0.5-1-0.5h-1.4l1.8-4.4h-3.1v-1.7h5.7l-1.9,4.5c0.6,0.1,1.1,0.3,1.5,0.7c0.2,0.3,0.4,0.9,0.4,1.9
				c0,0.3,0,0.8,0,1.5v0.7c0,2.2-0.1,3.5-0.4,4.1c-0.3,0.6-1.1,0.9-2.5,0.9c-0.5,0-1-0.1-1.6-0.1c-0.6-0.1-1-0.2-1.1-0.2V254.1z"/>
		</g>
		<g>
			<path fill="#FFFFFF" d="M160.5,471.2h-0.9c0,0.1,0,0.2,0.1,0.3l0,4.4c-0.9,0-1.4,0-1.5-0.1c-0.2-0.1-0.2-0.5-0.2-1.1v-3.1
				l0.1-0.3h-4.7l4.4-9.5h1.9v7.6l-0.1,0.3h0.9V471.2z M157.9,469.2v-4l-1.8,4.3h1.9L157.9,469.2z"/>
		</g>
		<g>
			<path fill="#FFFFFF" d="M392.6,480.1c0.5,0,0.9,0,1.1,0.1c0.2,0.1,0.4,0.2,0.5,0.2c0.1,0.1,0.2,0.2,0.3,0.3s0.2,0.3,0.2,0.4
				c0.1,0.1,0.1,0.3,0.1,0.5c0,0.3,0.1,0.5,0.1,0.6s0,0.4,0,0.8c0,0.4,0,0.6,0,0.9v2.2c0,0.8,0,1.4-0.1,1.6s-0.1,0.5-0.1,0.8
				c0,0.3-0.1,0.4-0.2,0.5s-0.2,0.2-0.3,0.4s-0.2,0.3-0.4,0.3l-0.5,0.2c-0.3,0.1-0.8,0.1-1.5,0.1l-2.7-0.1v-1.6h2.7
				c0.6,0,0.9-0.2,1-0.6s0.2-1.3,0.2-2.7c0-1.4-0.1-2.3-0.2-2.7c-0.1-0.4-0.5-0.5-1.1-0.5h-2.7v-6.1l5.5,0v1.7h-3.8
				c0,0.1,0,0.2,0.1,0.3v2.2l-0.1,0.3H392.6z"/>
		</g>
		<g>
			<path d="M127.5,328.9v10.9l-0.1,0.3h2.3v1.8h-6.3c0-0.9,0.1-1.4,0.2-1.5c0.1-0.2,0.5-0.2,1.2-0.2h0.9l-0.1-0.3v-10.4l-1.2,0.2
				v-1.7l1.5-0.2h0.1c0.7,0,1.1,0.1,1.2,0.2C127.4,327.9,127.5,328.3,127.5,328.9z"/>
			<path d="M131.7,338.7c-0.1-0.7-0.1-1.3-0.1-1.8c0-0.5,0-1.3,0-2.5s0-2,0-2.6c0-0.6,0.1-1.2,0.2-1.9c0.1-0.7,0.3-1.2,0.5-1.5
				c0.6-0.7,1.4-1,2.6-1c0.5,0,1,0,1.4,0.1c0.4,0.1,0.7,0.3,0.9,0.6c0.2,0.3,0.4,0.6,0.6,0.9c0.1,0.3,0.2,0.8,0.3,1.5
				c0.1,1,0.1,2.3,0.1,3.8c0,1.5,0,2.5,0,3c0,0.6-0.1,1.2-0.2,2c-0.1,0.7-0.3,1.3-0.5,1.5c-0.6,0.7-1.4,1.1-2.5,1.1
				c-0.5,0-1-0.1-1.4-0.2c-0.4-0.1-0.7-0.3-0.9-0.7c-0.2-0.3-0.4-0.7-0.6-0.9C131.8,339.9,131.7,339.4,131.7,338.7z M133.6,330.4
				c-0.1,0.8-0.2,2-0.2,3.6c0,1.6,0,2.6,0,3.1c0,0.5,0.1,1,0.1,1.6c0.1,0.6,0.2,1,0.4,1.2c0.2,0.2,0.5,0.3,0.8,0.3
				c0.6,0,1-0.4,1.2-1.2c0.1-0.8,0.2-2,0.2-3.6c0-1.6,0-2.6,0-3.1c0-0.5-0.1-1-0.1-1.6c-0.1-0.6-0.2-1-0.4-1.2s-0.5-0.3-0.8-0.3
				C134.2,329.2,133.8,329.6,133.6,330.4z"/>
		</g>
		<g>
			<path d="M588.1,351.2v-1.7h6.2v1.3l-4.8,12.8h-1.9l4.6-12.5H588.1z"/>
		</g>
		<g>
			<path d="M708.5,180.9v10.9l-0.1,0.3h2.3v1.8h-6.3c0-0.9,0.1-1.4,0.2-1.5c0.1-0.2,0.5-0.2,1.2-0.2h0.9l-0.1-0.3v-10.4l-1.2,0.2
				v-1.7l1.5-0.2h0.1c0.7,0,1.1,0.1,1.2,0.2C708.4,179.9,708.5,180.3,708.5,180.9z"/>
		</g>
		<g>
			<path d="M651.1,89.9v10.9l-0.1,0.3h2.3v1.8H647c0-0.9,0.1-1.4,0.2-1.5c0.1-0.2,0.5-0.2,1.2-0.2h0.9l-0.1-0.3V90.4l-1.2,0.2v-1.7
				l1.5-0.2h0.1c0.7,0,1.1,0.1,1.2,0.2C651.1,88.9,651.1,89.3,651.1,89.9z"/>
			<path d="M659.3,89.9v10.9l-0.1,0.3h2.3v1.8h-6.3c0-0.9,0.1-1.4,0.2-1.5c0.1-0.2,0.5-0.2,1.2-0.2h0.9l-0.1-0.3V90.4l-1.2,0.2v-1.7
				l1.5-0.2h0.1c0.7,0,1.1,0.1,1.2,0.2C659.3,88.9,659.3,89.3,659.3,89.9z"/>
		</g>
	</g>
</g>
</svg>
